<?xml version='1.0' encoding='utf-8'?>
<svg xmlns="http://www.w3.org/2000/svg" id="svg8678" version="1.1" viewBox="0 0 20.334684 12.4018" height="46.872944" width="76.855499"> <defs id="defs8672"/> <metadata id="metadata8675"> </metadata> <g transform="translate(-85.838588,-56.271376)" id="layer1"> <g transform="matrix(0.07494976,0,0,0.07494976,543.75317,-1059.8143)" id="g4497"> <path id="path1342-2" d="m -5880.338,14893.402 a 20.667382,20.667382 0 0 0 -16.9181,8.82 15.598816,15.598816 0 0 0 -5.5642,-1.048 15.598816,15.598816 0 0 0 -15.5982,15.598 15.598816,15.598816 0 0 0 0.089,1.522 17.902567,17.902567 0 0 0 -16.6898,17.855 17.902567,17.902567 0 0 0 17.7213,17.9 v 0 h 0.188 55.8576 a 20.667382,20.667382 0 0 0 20.6673,-20.667 20.667382,20.667382 0 0 0 -19.1271,-20.595 20.667382,20.667382 0 0 0 -20.6217,-19.394 z" style="color:#000000;clip-rule:nonzero;display:inline;overflow:visible;visibility:visible;opacity:1;isolation:auto;mix-blend-mode:normal;color-interpolation:sRGB;color-interpolation-filters:linearRGB;solid-color:#000000;solid-opacity:1;fill:#ececec;fill-opacity:1;fill-rule:nonzero;stroke:#cccccc;stroke-width:4.55117607;stroke-linecap:round;stroke-linejoin:round;stroke-miterlimit:4;stroke-dasharray:none;stroke-dashoffset:0;stroke-opacity:1;color-rendering:auto;image-rendering:auto;shape-rendering:auto;text-rendering:auto;enable-background:accumulate"/> <path style="color:#000000;clip-rule:nonzero;display:inline;overflow:visible;visibility:visible;opacity:1;isolation:auto;mix-blend-mode:normal;color-interpolation:sRGB;color-interpolation-filters:linearRGB;solid-color:#000000;solid-opacity:1;fill:#ececec;fill-opacity:1;fill-rule:nonzero;stroke:#cccccc;stroke-width:4.55117607;stroke-linecap:round;stroke-linejoin:round;stroke-miterlimit:4;stroke-dasharray:none;stroke-dashoffset:0;stroke-opacity:1;color-rendering:auto;image-rendering:auto;shape-rendering:auto;text-rendering:auto;enable-background:accumulate" d="m -6052.6625,14993.662 a 20.667382,20.667382 0 0 0 -16.9192,8.82 15.598816,15.598816 0 0 0 -5.5642,-1.048 15.598816,15.598816 0 0 0 -15.5982,15.6 15.598816,15.598816 0 0 0 0.089,1.522 17.902567,17.902567 0 0 0 -16.6897,17.854 17.902567,17.902567 0 0 0 17.7212,17.9 h -0.015 0.188 55.8567 a 20.667382,20.667382 0 0 0 20.6673,-20.666 20.667382,20.667382 0 0 0 -19.1262,-20.595 20.667382,20.667382 0 0 0 -20.6226,-19.396 z" id="path1344-2"/> <path style="color:#000000;clip-rule:nonzero;display:inline;overflow:visible;visibility:visible;opacity:1;isolation:auto;mix-blend-mode:normal;color-interpolation:sRGB;color-interpolation-filters:linearRGB;solid-color:#000000;solid-opacity:1;fill:#ececec;fill-opacity:1;fill-rule:nonzero;stroke:#cccccc;stroke-width:4.55117607;stroke-linecap:round;stroke-linejoin:round;stroke-miterlimit:4;stroke-dasharray:none;stroke-dashoffset:0;stroke-opacity:1;color-rendering:auto;image-rendering:auto;shape-rendering:auto;text-rendering:auto;enable-background:accumulate" d="m -5901.0375,14974.715 a 20.667382,20.667382 0 0 0 -16.919,8.811 15.598816,15.598816 0 0 0 -5.5633,-1.039 15.598816,15.598816 0 0 0 -15.5993,15.6 15.598816,15.598816 0 0 0 0.09,1.513 17.902567,17.902567 0 0 0 -16.6899,17.863 17.902567,17.902567 0 0 0 17.7223,17.891 v 0 h 0.188 55.8576 a 20.667382,20.667382 0 0 0 20.6674,-20.666 20.667382,20.667382 0 0 0 -19.1273,-20.594 20.667382,20.667382 0 0 0 -20.6216,-19.386 z" id="path1346-1"/> <path style="color:#000000;clip-rule:nonzero;display:inline;overflow:visible;visibility:visible;opacity:1;isolation:auto;mix-blend-mode:normal;color-interpolation:sRGB;color-interpolation-filters:linearRGB;solid-color:#000000;solid-opacity:1;fill:#a0c96b;fill-opacity:1;fill-rule:nonzero;stroke:#636363;stroke-width:9.4765892;stroke-linecap:round;stroke-linejoin:round;stroke-miterlimit:4;stroke-dasharray:none;stroke-dashoffset:0;stroke-opacity:1;color-rendering:auto;image-rendering:auto;shape-rendering:auto;text-rendering:auto;enable-background:accumulate" d="m -5961.2522,14896.867 a 43.034216,43.034216 0 0 0 -35.2287,18.357 32.480301,32.480301 0 0 0 -11.5851,-2.176 32.480301,32.480301 0 0 0 -32.4807,32.476 32.480301,32.480301 0 0 0 0.1882,3.162 37.27724,37.27724 0 0 0 -34.7515,37.195 37.27724,37.27724 0 0 0 36.9005,37.258 v 0 h 0.3849 116.3069 a 43.034216,43.034216 0 0 0 43.0351,-43.034 43.034216,43.034216 0 0 0 -39.8267,-42.881 43.034216,43.034216 0 0 0 -42.9401,-40.374 z" id="path3293-0"/> </g> </g> </svg>